<svg width="25" height="18" viewBox="0 0 25 18" fill="none" xmlns="http://www.w3.org/2000/svg">
<path fill-rule="evenodd" clip-rule="evenodd" d="M18.9754 16.8258C19.5979 16.8996 19.8682 16.7628 19.9789 16.652C20.0896 16.5414 20.2264 16.271 20.1526 15.6485C20.0803 15.0384 19.8175 14.2374 19.3427 13.2878C19.1903 12.9829 19.0184 12.6674 18.8278 12.3432C16.9857 12.747 14.7807 12.982 12.4111 12.982C12.3345 12.982 12.258 12.9817 12.1818 12.9812C13.752 14.3151 15.2848 15.351 16.6146 16.0158C17.5642 16.4907 18.3653 16.7535 18.9754 16.8258ZM24.1043 9.08425C24.1043 10.3164 22.3891 11.415 19.7111 12.1293C21.0449 14.474 21.452 16.4119 20.5953 17.2685C19.2113 18.6525 15.0051 16.7378 10.8204 12.9462C5.11488 12.6876 0.717896 11.057 0.717896 9.08425C0.717896 7.86156 2.40678 6.77042 5.04936 6.05576C3.6313 3.62838 3.17963 1.61087 4.05866 0.731843C5.46312 -0.672574 9.77358 1.31969 14.0187 5.22303C19.716 5.48417 24.1043 7.11338 24.1043 9.08425ZM12.4111 12.1102C11.9924 12.1102 11.5796 12.1027 11.1739 12.0881C10.8446 11.7841 10.5153 11.4677 10.1873 11.1398C8.66199 9.61447 7.38817 8.05858 6.43247 6.6233C8.15017 6.26818 10.1984 6.05829 12.4111 6.05829C12.8343 6.05829 13.2514 6.06596 13.6614 6.08087C13.9302 6.33278 14.1989 6.59275 14.4667 6.86052C16.0555 8.44932 17.3714 10.0713 18.3392 11.5556C16.6319 11.9044 14.6021 12.1102 12.4111 12.1102ZM9.57088 11.7563C7.91796 10.1033 6.54 8.40202 5.52667 6.83175C5.13454 6.93174 4.76429 7.03989 4.41845 7.15518C3.41118 7.49096 2.65895 7.87154 2.17641 8.25177C1.68406 8.63981 1.58969 8.92767 1.58969 9.08425C1.58969 9.24078 1.68406 9.52869 2.17641 9.91668C2.65895 10.297 3.41118 10.6775 4.41845 11.0133C5.85878 11.4934 7.72242 11.8497 9.82959 12.0123C9.74324 11.9277 9.65702 11.8424 9.57088 11.7563ZM12.4111 5.1865C10.0156 5.1865 7.78841 5.42663 5.93424 5.83856C5.70016 5.45043 5.49202 5.07399 5.3113 4.71255C4.83647 3.7629 4.57367 2.96189 4.50135 2.35181C4.4276 1.72931 4.56443 1.45896 4.6751 1.34829C4.78582 1.23757 5.05612 1.10074 5.67863 1.17454C6.28871 1.24686 7.08976 1.50966 8.0394 1.98448C9.42464 2.67708 11.0302 3.77223 12.6688 5.18746C12.5831 5.1868 12.4972 5.1865 12.4111 5.1865ZM20.4037 7.15518C18.964 6.67526 17.1012 6.31909 14.9951 6.15632C15.0244 6.18549 15.0538 6.21474 15.0831 6.24407C16.7999 7.96085 18.2201 9.72986 19.2431 11.35C19.6547 11.2463 20.0425 11.1337 20.4037 11.0133C21.411 10.6775 22.1632 10.297 22.6457 9.91668C23.1381 9.52869 23.2325 9.24078 23.2325 9.08425C23.2325 8.92767 23.1381 8.63981 22.6457 8.25177C22.1632 7.87154 21.411 7.49096 20.4037 7.15518ZM12.4871 9.87196C12.9686 9.87196 13.3589 9.48166 13.3589 9.00016C13.3589 8.51867 12.9686 8.12837 12.4871 8.12837C12.0056 8.12837 11.6153 8.51867 11.6153 9.00016C11.6153 9.48166 12.0056 9.87196 12.4871 9.87196Z" fill="#333333"/>
</svg>
